<svg width="16" height="16" viewBox="0 0 16 16" fill="none" xmlns="http://www.w3.org/2000/svg">
<path d="M10.0839 5.91602C10.2656 6.09766 10.2656 6.39216 10.0839 6.57379L8.65778 7.99995L10.0839 9.4261C10.2656 9.60774 10.2656 9.90223 10.0839 10.0839C9.90229 10.2655 9.6078 10.2655 9.42616 10.0839L8.00001 8.65772L6.57386 10.0839C6.39222 10.2655 6.09772 10.2655 5.91608 10.0839C5.73444 9.90223 5.73444 9.60774 5.91608 9.4261L7.34223 7.99995L5.91608 6.57379C5.73444 6.39216 5.73444 6.09766 5.91608 5.91602C6.09772 5.73438 6.39222 5.73438 6.57386 5.91602L8.00001 7.34217L9.42616 5.91602C9.6078 5.73438 9.90229 5.73438 10.0839 5.91602Z" fill="#333630"/>
<path fill-rule="evenodd" clip-rule="evenodd" d="M1.33331 7.99992C1.33331 4.33219 4.33225 1.33325 7.99998 1.33325C11.6677 1.33325 14.6666 4.33219 14.6666 7.99992C14.6666 11.6676 11.6677 14.6666 7.99998 14.6666C4.33225 14.6666 1.33331 11.6676 1.33331 7.99992ZM7.99998 2.26348C4.846 2.26348 2.26355 4.84594 2.26355 7.99992C2.26355 11.1539 4.846 13.7364 7.99998 13.7364C11.154 13.7364 13.7364 11.1539 13.7364 7.99992C13.7364 4.84594 11.154 2.26348 7.99998 2.26348Z" fill="#333630"/>
</svg>
