<svg width="16" height="16" viewBox="0 0 16 16" fill="none" xmlns="http://www.w3.org/2000/svg">
<path d="M10.9642 6.57408C11.146 6.39261 11.1463 6.09811 10.9648 5.91631C10.7833 5.73451 10.4888 5.73425 10.307 5.91573L7.11965 9.0975L5.69321 7.67106C5.51157 7.48942 5.21707 7.48942 5.03543 7.67106C4.8538 7.8527 4.8538 8.14719 5.03543 8.32883L6.79047 10.0839C6.972 10.2654 7.26627 10.2655 7.44796 10.0842L10.9642 6.57408Z" fill="#354E18"/>
<path fill-rule="evenodd" clip-rule="evenodd" d="M7.99998 1.33325C4.33225 1.33325 1.33331 4.33219 1.33331 7.99992C1.33331 11.6676 4.33225 14.6666 7.99998 14.6666C11.6677 14.6666 14.6666 11.6676 14.6666 7.99992C14.6666 4.33219 11.6677 1.33325 7.99998 1.33325ZM2.26355 7.99992C2.26355 4.84594 4.846 2.26348 7.99998 2.26348C11.154 2.26348 13.7364 4.84594 13.7364 7.99992C13.7364 11.1539 11.154 13.7364 7.99998 13.7364C4.846 13.7364 2.26355 11.1539 2.26355 7.99992Z" fill="#354E18"/>
</svg>
